<?xml version="1.0" standalone="no"?>
<!DOCTYPE svg PUBLIC "-//W3C//DTD SVG 20010904//EN"
 "http://www.w3.org/TR/2001/REC-SVG-20010904/DTD/svg10.dtd">
<svg version="1.0" xmlns="http://www.w3.org/2000/svg"
 width="1080.000000pt" height="1080.000000pt" viewBox="0 0 1080.000000 1080.000000"
 preserveAspectRatio="xMidYMid meet">
<metadata>
Created by potrace 1.14, written by Peter Selinger 2001-2017
</metadata>
<g transform="translate(0.000000,1080.000000) scale(0.100000,-0.100000)"
fill="#000000" stroke="none">
<path d="M2159 10796 c-2 -2 -69 -7 -149 -10 -464 -20 -736 -76 -980 -203
-235 -122 -464 -309 -608 -498 -25 -33 -49 -62 -52 -65 -15 -11 -129 -199
-162 -265 -48 -95 -105 -254 -122 -339 -20 -94 -21 -100 -32 -176 -4 -30 -9
-57 -9 -60 -1 -3 -5 -41 -9 -85 -4 -44 -9 -91 -12 -105 -16 -99 -19 -734 -19
-3590 0 -2855 3 -3481 19 -3580 2 -14 7 -59 10 -100 11 -124 24 -206 57 -350
137 -590 688 -1141 1279 -1279 74 -17 140 -29 240 -45 14 -2 61 -7 105 -11 44
-4 91 -8 104 -10 103 -17 737 -20 3561 -20 2860 0 3517 4 3610 19 14 3 54 7
90 10 149 12 359 53 475 92 437 146 847 517 1051 948 37 80 87 218 98 272 3
11 9 39 15 64 30 136 56 359 69 595 10 190 9 6568 -1 6775 -4 91 -9 181 -12
200 -2 19 -6 67 -10 105 -38 419 -154 714 -395 1009 -89 109 -167 187 -276
276 -318 260 -624 370 -1124 405 -52 4 -113 9 -135 12 -44 7 -6670 15 -6676 9z"/>
</g>
</svg>
