<svg width="140" height="43" viewBox="0 0 140 43" fill="none" xmlns="http://www.w3.org/2000/svg">
<path d="M44.3119 11.3284L44.6126 6.5979H48.1468V13.8167H43.6351V13.762C44.1068 13.2083 44.2435 12.4495 44.3119 11.3284ZM42.555 15.1428H49.5072V17.0911H50.9085V13.8167H49.6781V5.27856H43.2523L42.89 11.26C42.8148 12.5657 42.5687 13.4065 41.8646 13.8167H41.1468V17.0911H42.555V15.1428Z" fill="white"/>
<path d="M55.1673 15.2795C57.2249 15.2795 58.5785 13.8645 58.5785 11.5471C58.5785 9.23657 57.2181 7.82153 55.1673 7.82153C53.1166 7.82153 51.7562 9.23657 51.7562 11.5471C51.7562 13.8645 53.1097 15.2795 55.1673 15.2795ZM55.1673 14.0627C54.0121 14.0627 53.2601 13.1467 53.2601 11.5471C53.2601 9.95435 54.0121 9.03833 55.1673 9.03833C56.3226 9.03833 57.0746 9.95435 57.0746 11.5471C57.0746 13.1467 56.3294 14.0627 55.1673 14.0627Z" fill="white"/>
<path d="M65.9886 10.2551C65.7835 8.92896 64.6761 7.82153 62.8988 7.82153C60.8548 7.82153 59.5287 9.29126 59.5287 11.5471C59.5287 13.8508 60.8548 15.2795 62.9124 15.2795C64.6078 15.2795 65.7904 14.2952 66.0023 12.8528H64.5804C64.3753 13.6047 63.8011 14.0422 62.9261 14.0422C61.7777 14.0422 61.0257 13.1057 61.0257 11.5471C61.0257 10.0295 61.7708 9.052 62.9124 9.052C63.8285 9.052 64.3753 9.59204 64.5667 10.2551H65.9886Z" fill="white"/>
<path d="M72.5101 7.95142H66.5287V9.12036H68.7845V15.1428H70.2542V9.12036H72.5101V7.95142Z" fill="white"/>
<path d="M74.308 17.8225C75.805 17.8225 76.5091 17.262 77.1244 15.5188L79.8246 7.95142H78.266L76.4408 13.803H76.4203L74.5951 7.95142H72.9955L75.5931 15.1497C75.5931 15.1565 75.4632 15.5803 75.4632 15.594C75.2376 16.3323 74.8753 16.6194 74.1849 16.6194C74.0619 16.6194 73.8158 16.6194 73.7064 16.592V17.7883C73.8158 17.8088 74.1917 17.8225 74.308 17.8225Z" fill="white"/>
<path d="M85.4642 15.1428H86.9408V7.95142H80.8089V15.1428H82.2787V9.12036H85.4642V15.1428Z" fill="white"/>
<path d="M93.2572 15.1428H94.7269V7.95142H93.2572V10.8499H90.0033V7.95142H88.5335V15.1428H90.0033V12.012H93.2572V15.1428Z" fill="white"/>
<path d="M99.4232 15.2795C101.481 15.2795 102.834 13.8645 102.834 11.5471C102.834 9.23657 101.474 7.82153 99.4232 7.82153C97.3724 7.82153 96.0121 9.23657 96.0121 11.5471C96.0121 13.8645 97.3656 15.2795 99.4232 15.2795ZM99.4232 14.0627C98.2679 14.0627 97.516 13.1467 97.516 11.5471C97.516 9.95435 98.2679 9.03833 99.4232 9.03833C100.578 9.03833 101.33 9.95435 101.33 11.5471C101.33 13.1467 100.585 14.0627 99.4232 14.0627Z" fill="white"/>
<path d="M109.916 9.02466C110.634 9.02466 111.024 9.35962 111.024 9.95435C111.024 10.5901 110.607 10.9114 109.773 10.9114H108.406V9.02466H109.916ZM109.869 11.9436C110.839 11.9436 111.318 12.2991 111.318 13.01C111.318 13.7004 110.867 14.0696 110.033 14.0696H108.406V11.9436H109.869ZM106.95 15.1428H110.258C111.817 15.1428 112.787 14.3362 112.787 13.0715C112.787 12.1692 112.172 11.5129 111.243 11.3899V11.3352C111.933 11.2053 112.466 10.5286 112.466 9.78345C112.466 8.64868 111.619 7.95142 110.217 7.95142H106.95V15.1428Z" fill="white"/>
<path d="M50.4941 38H53.416L47.916 22.499H44.79L39.29 38H42.1475L43.4688 33.9931H49.1729L50.4941 38ZM46.2832 25.2382H46.3584L48.5176 31.8554H44.1133L46.2832 25.2382Z" fill="white"/>
<path d="M61.0645 26.4199C59.4102 26.4199 58.1211 27.2578 57.4766 28.5791H57.4229V26.6132H54.8125V41.749H57.4873V36.1093H57.541C58.1641 37.3877 59.4531 38.1826 61.1074 38.1826C63.9648 38.1826 65.791 35.9375 65.791 32.3066C65.791 28.665 63.9541 26.4199 61.0645 26.4199ZM60.248 35.9912C58.583 35.9912 57.4766 34.541 57.4658 32.3066C57.4766 30.0937 58.583 28.622 60.248 28.622C61.9775 28.622 63.0518 30.0615 63.0518 32.3066C63.0518 34.5625 61.9775 35.9912 60.248 35.9912Z" fill="white"/>
<path d="M73.7617 26.4199C72.1074 26.4199 70.8184 27.2578 70.1738 28.5791H70.1201V26.6132H67.5098V41.749H70.1846V36.1093H70.2383C70.8613 37.3877 72.1504 38.1826 73.8047 38.1826C76.6621 38.1826 78.4883 35.9375 78.4883 32.3066C78.4883 28.665 76.6514 26.4199 73.7617 26.4199ZM72.9453 35.9912C71.2803 35.9912 70.1738 34.541 70.1631 32.3066C70.1738 30.0937 71.2803 28.622 72.9453 28.622C74.6748 28.622 75.749 30.0615 75.749 32.3066C75.749 34.5625 74.6748 35.9912 72.9453 35.9912Z" fill="white"/>
<path d="M84.2461 33.6386C84.3643 36.4961 86.7061 38.2578 90.2725 38.2578C94.0215 38.2578 96.3848 36.4101 96.3848 33.4668C96.3848 31.1572 95.0527 29.8574 91.9053 29.1377L90.1221 28.7295C88.2207 28.2783 87.4365 27.6767 87.4365 26.6455C87.4365 25.3564 88.6182 24.497 90.3691 24.497C92.1416 24.497 93.3555 25.3672 93.4844 26.8173H96.127C96.0625 24.0888 93.8066 22.2412 90.3906 22.2412C87.0176 22.2412 84.6221 24.0996 84.6221 26.8496C84.6221 29.0625 85.9756 30.4375 88.833 31.0927L90.8418 31.5654C92.7969 32.0273 93.5918 32.6718 93.5918 33.789C93.5918 35.0781 92.292 36.0019 90.4229 36.0019C88.5322 36.0019 87.1035 35.0673 86.9316 33.6386H84.2461Z" fill="white"/>
<path d="M98.9521 23.9492V26.6132H97.3193V28.6757H98.9521V34.9707C98.9521 37.1836 99.9189 38.0537 102.379 38.0537C102.948 38.0537 103.475 38.0107 103.765 37.9463V35.9052C103.593 35.9375 103.249 35.959 103.002 35.959C102.057 35.959 101.627 35.5293 101.627 34.5947V28.6757H103.775V26.6132H101.627V23.9492H98.9521Z" fill="white"/>
<path d="M110.425 38.2256C113.766 38.2256 115.936 36.0019 115.936 32.3066C115.936 28.622 113.744 26.3769 110.425 26.3769C107.105 26.3769 104.914 28.6328 104.914 32.3066C104.914 36.0019 107.084 38.2256 110.425 38.2256ZM110.425 36.1093C108.728 36.1093 107.632 34.7343 107.632 32.3066C107.632 29.8896 108.738 28.5039 110.425 28.5039C112.122 28.5039 113.218 29.8896 113.218 32.3066C113.218 34.7343 112.122 36.1093 110.425 36.1093Z" fill="white"/>
<path d="M117.654 38H120.329V31.372C120.329 29.7715 121.242 28.7939 122.757 28.7939C123.208 28.7939 123.616 28.8584 123.842 28.9443V26.5273C123.648 26.4843 123.348 26.4199 123.004 26.4199C121.661 26.4199 120.662 27.2148 120.275 28.6006H120.222V26.6132H117.654V38Z" fill="white"/>
<path d="M129.696 28.4502C131.232 28.4502 132.264 29.5781 132.317 31.1894H127C127.107 29.5996 128.192 28.4502 129.696 28.4502ZM132.328 34.5947C132.038 35.54 131.093 36.1631 129.847 36.1631C128.096 36.1631 126.979 34.9384 126.979 33.1123V32.9511H134.938V32.081C134.938 28.622 132.919 26.3769 129.686 26.3769C126.398 26.3769 124.314 28.7509 124.314 32.3496C124.314 35.9804 126.377 38.2256 129.793 38.2256C132.489 38.2256 134.487 36.7431 134.831 34.5947H132.328Z" fill="white"/>
<path fill-rule="evenodd" clip-rule="evenodd" d="M31.351 27.7151C30.4941 29.6178 30.0839 30.4669 28.981 32.1484C27.4412 34.4965 25.2719 37.4199 22.5839 37.4444C20.1947 37.4665 19.5814 35.8868 16.3396 35.9047C13.0979 35.9224 12.4208 37.4721 10.0314 37.4503C7.34311 37.4254 5.28734 34.7852 3.74785 32.4381C-0.556858 25.8736 -1.00659 18.1698 1.64784 14.0745C3.53482 11.1638 6.51041 9.46 9.30932 9.46C12.1586 9.46 13.9498 11.0255 16.3057 11.0255C18.5907 11.0255 19.9838 9.45752 23.2777 9.45752C25.7677 9.45752 28.4061 10.8154 30.2862 13.1647C24.1268 16.5459 25.1271 25.3592 31.351 27.7151" fill="white"/>
<path fill-rule="evenodd" clip-rule="evenodd" d="M20.7787 6.83565C21.9747 5.29688 22.8843 3.12284 22.5545 0.901855C20.6 1.03674 18.3123 2.28274 16.9768 3.90729C15.7649 5.38235 14.7644 7.56976 15.1541 9.69532C17.2883 9.76152 19.4964 8.48445 20.7787 6.83565" fill="white"/>
</svg>
